<?xml version="1.0" encoding="UTF-8"?>
<!DOCTYPE svg PUBLIC "-//W3C//DTD SVG 1.1//EN" "http://www.w3.org/Graphics/SVG/1.1/DTD/svg11.dtd">
<svg version="1.1" xmlns="http://www.w3.org/2000/svg" xmlns:xlink="http://www.w3.org/1999/xlink" x="0" y="0" width="600" height="100" viewBox="0, 0, 600, 100">
  <defs>
    <linearGradient id="Gradient_1" gradientUnits="userSpaceOnUse" x1="493.707" y1="56.98" x2="493.707" y2="5.192">
      <stop offset="0" stop-color="#E15EFF"/>
      <stop offset="1" stop-color="#4897FB"/>
    </linearGradient>
    <linearGradient id="Gradient_2" gradientUnits="userSpaceOnUse" x1="515.194" y1="40.107" x2="515.194" y2="5.192">
      <stop offset="0" stop-color="#E15EFF"/>
      <stop offset="1" stop-color="#4897FB"/>
    </linearGradient>
    <linearGradient id="Gradient_3" gradientUnits="userSpaceOnUse" x1="536.46" y1="26.664" x2="536.46" y2="5.192">
      <stop offset="0" stop-color="#E15EFF"/>
      <stop offset="1" stop-color="#4897FB"/>
    </linearGradient>
    <linearGradient id="Gradient_4" gradientUnits="userSpaceOnUse" x1="557.836" y1="35.92" x2="557.836" y2="5.192">
      <stop offset="0" stop-color="#E15EFF"/>
      <stop offset="1" stop-color="#4897FB"/>
    </linearGradient>
    <linearGradient id="Gradient_5" gradientUnits="userSpaceOnUse" x1="493.707" y1="94.808" x2="493.707" y2="64.396">
      <stop offset="0" stop-color="#E93F33"/>
      <stop offset="1" stop-color="#EE7F33"/>
    </linearGradient>
    <linearGradient id="Gradient_6" gradientUnits="userSpaceOnUse" x1="515.194" y1="94.808" x2="515.194" y2="47.379">
      <stop offset="0" stop-color="#E93F33"/>
      <stop offset="1" stop-color="#EE7F33"/>
    </linearGradient>
    <linearGradient id="Gradient_7" gradientUnits="userSpaceOnUse" x1="536.46" y1="94.808" x2="536.46" y2="35.92">
      <stop offset="0" stop-color="#E93F33"/>
      <stop offset="1" stop-color="#EE7F33"/>
    </linearGradient>
    <linearGradient id="Gradient_8" gradientUnits="userSpaceOnUse" x1="557.836" y1="94.808" x2="557.836" y2="44.074">
      <stop offset="0" stop-color="#E93F33"/>
      <stop offset="1" stop-color="#EE7F33"/>
    </linearGradient>
  </defs>
  <g id="Image">
    <g>
      <path d="M36.344,13.25 L91.469,13.254 L95.144,13.434 C101.232,13.756 105.694,18.181 105.985,24.28 L106.169,27.95 L62.069,72.05 L95.144,72.05 L98.819,72.234 C104.884,72.613 109.169,77.028 109.66,83.079 L109.844,86.75 L54.719,86.75 L51.044,86.566 C44.941,86.165 40.566,81.78 40.203,75.721 L40.019,72.05 L84.119,27.95 L51.044,27.95 L47.365,27.766 C41.354,27.419 37.004,22.901 36.528,16.921 L36.344,13.25 z" fill="#2D8CFF"/>
      <path d="M334.018,13.25 C350.255,13.25 363.418,26.413 363.418,42.65 L363.418,86.75 L359.747,86.566 C353.674,86.214 349.283,81.767 348.902,75.721 L348.718,72.05 L348.718,46.321 L348.534,42.65 C348.389,39.957 348.001,37.46 346.749,35.296 C344.208,30.905 339.458,27.95 334.018,27.95 C328.598,27.95 323.863,30.884 321.314,35.25 C320.045,37.423 319.645,39.924 319.502,42.65 L319.318,46.325 L319.318,86.75 L315.647,86.566 C309.583,86.182 305.166,81.732 304.802,75.721 L304.618,72.05 L304.618,46.325 L304.434,42.65 C304.292,39.89 303.897,37.444 302.638,35.277 C300.093,30.896 295.35,27.95 289.918,27.95 C284.492,27.95 279.752,30.89 277.206,35.264 C275.942,37.434 275.557,39.886 275.402,42.65 L275.218,46.325 L275.218,72.05 L275.034,75.727 C274.795,81.827 270.332,86.163 264.193,86.566 L260.518,86.75 L260.518,13.25 C264.193,13.25 270.594,15.109 273.453,18.29 C278.151,15.109 283.818,13.25 289.918,13.25 C298.7,13.25 306.581,17.1 311.968,23.203 C317.356,17.1 325.238,13.25 334.018,13.25 z" fill="#2D8CFF"/>
      <path d="M142.942,13.25 C152.34,13.256 161.735,16.844 168.905,24.014 C183.256,38.366 183.256,61.634 168.905,75.986 C154.553,90.338 131.285,90.338 116.933,75.986 C102.581,61.634 102.581,38.366 116.933,24.014 C124.103,16.844 133.498,13.256 142.896,13.25 L142.942,13.25 z M142.753,27.981 C130.602,27.981 120.752,37.831 120.752,49.983 C120.752,62.134 130.602,71.984 142.753,71.984 C154.904,71.984 164.755,62.134 164.755,49.983 C164.755,37.831 154.904,27.981 142.753,27.981 z" fill="#2D8CFF"/>
      <path d="M220.071,13.25 C229.514,13.256 238.91,16.844 246.079,24.014 C260.431,38.366 260.431,61.634 246.079,75.986 C231.728,90.338 208.459,90.338 194.108,75.986 C179.756,61.634 179.756,38.366 194.108,24.014 C201.278,16.844 210.673,13.256 220.071,13.25 z M219.759,27.981 C207.608,27.981 197.757,37.831 197.757,49.982 C197.757,62.134 207.608,71.984 219.759,71.984 C231.91,71.984 241.76,62.134 241.76,49.982 C241.76,37.831 231.91,27.981 219.759,27.981 z" fill="#2D8CFF"/>
    </g>
    <g>
      <path d="M493.67,5.192 L493.745,5.192 C497.071,5.192 499.768,7.938 499.768,11.325 L499.768,50.848 C499.768,54.235 497.071,56.98 493.745,56.98 L493.67,56.98 C490.344,56.98 487.647,54.235 487.647,50.848 L487.647,11.325 C487.647,7.938 490.344,5.192 493.67,5.192 z" fill="url(#Gradient_1)"/>
      <path d="M514.715,5.192 L515.672,5.192 C519.059,5.192 521.805,7.938 521.805,11.325 L521.805,33.975 C521.805,37.362 519.059,40.107 515.672,40.107 L514.715,40.107 C511.328,40.107 508.582,37.362 508.582,33.975 L508.582,11.325 C508.582,7.938 511.328,5.192 514.715,5.192 z" fill="url(#Gradient_2)"/>
      <path d="M535.871,5.192 L537.049,5.192 C540.435,5.192 543.181,7.938 543.181,11.325 L543.181,20.532 C543.181,23.919 540.435,26.664 537.049,26.664 L535.871,26.664 C532.484,26.664 529.738,23.919 529.738,20.532 L529.738,11.325 C529.738,7.938 532.484,5.192 535.871,5.192 z" fill="url(#Gradient_3)"/>
      <path d="M557.467,5.192 L558.204,5.192 C561.591,5.192 564.337,7.938 564.337,11.325 L564.337,29.788 C564.337,33.175 561.591,35.92 558.204,35.92 L557.467,35.92 C554.08,35.92 551.335,33.175 551.335,29.788 L551.335,11.325 C551.335,7.938 554.08,5.192 557.467,5.192 z" fill="url(#Gradient_4)"/>
      <path d="M493.707,64.396 L493.707,64.396 C497.054,64.396 499.768,67.109 499.768,70.456 L499.768,88.747 C499.768,92.094 497.054,94.808 493.707,94.808 L493.707,94.808 C490.36,94.808 487.647,92.094 487.647,88.747 L487.647,70.456 C487.647,67.109 490.36,64.396 493.707,64.396 z" fill="url(#Gradient_5)"/>
      <path d="M514.715,47.379 L515.672,47.379 C519.059,47.379 521.805,50.125 521.805,53.512 L521.805,88.675 C521.805,92.062 519.059,94.808 515.672,94.808 L514.715,94.808 C511.328,94.808 508.582,92.062 508.582,88.675 L508.582,53.512 C508.582,50.125 511.328,47.379 514.715,47.379 z" fill="url(#Gradient_6)"/>
      <path d="M535.871,35.92 L537.049,35.92 C540.435,35.92 543.181,38.666 543.181,42.052 L543.181,88.675 C543.181,92.062 540.435,94.808 537.049,94.808 L535.871,94.808 C532.484,94.808 529.738,92.062 529.738,88.675 L529.738,42.052 C529.738,38.666 532.484,35.92 535.871,35.92 z" fill="url(#Gradient_7)"/>
      <path d="M557.467,44.074 L558.204,44.074 C561.591,44.074 564.337,46.819 564.337,50.206 L564.337,88.675 C564.337,92.062 561.591,94.808 558.204,94.808 L557.467,94.808 C554.08,94.808 551.335,92.062 551.335,88.675 L551.335,50.206 C551.335,46.819 554.08,44.074 557.467,44.074 z" fill="url(#Gradient_8)"/>
    </g>
    <path d="M419.2,28.125 L427.159,28.125 L427.159,71.875 L419.2,71.875 L419.2,28.125 z" fill="#CCCCCC"/>
    <path d="M445.054,46.02 L445.054,53.98 L401.305,53.98 L401.305,46.02 L445.054,46.02 z" fill="#CCCCCC"/>
  </g>
</svg>
